<svg width="60" height="60" viewBox="0 0 60 60" fill="none" xmlns="http://www.w3.org/2000/svg">
<style>
    :root {
      color-scheme: light dark;
      --stroke-color: light-dark(black, white);
    }
</style>
<path d="M25.4198 6.01001C24.1098 6.01001 22.9398 6.55994 22.1098 7.43994L21.7398 7.71997C21.2998 7.59997 20.8498 7.53003 20.3698 7.53003C17.5598 7.53003 15.2798 9.82 15.2798 12.63C13.8398 12.98 12.5198 14.63 12.5198 16.29C12.5198 16.78 12.5898 17.26 12.7198 17.71C10.5698 18.7 9.06981 20.87 9.06981 23.4C9.06981 24 9.15981 24.58 9.31981 25.14C7.92981 26.39 7.0498 28.19 7.0498 30.2C7.0498 32.32 8.01979 34.22 9.53979 35.46C8.82979 36.46 8.40981 37.68 8.40981 39C8.40981 41.6 10.0198 43.81 12.2998 44.7C12.2998 44.84 12.2798 44.98 12.2798 45.12C12.2798 48.34 14.7598 50.97 17.9098 51.22C19.1198 52.9 21.0898 54 23.3198 54C27.0098 54 29.9998 51.0099 29.9998 47.3099V10.58C29.9998 8.04996 27.9498 6 25.4198 6V6.01001Z" stroke="var(--stroke-color)" stroke-width="2" stroke-linecap="round" stroke-linejoin="round"/>
<path d="M15.2397 12.99C15.2397 12.99 15.2597 13.04 15.2897 13.04C15.2897 13.04 15.3397 13.01 15.3397 12.99V12.9301C15.3297 12.8401 15.3197 12.74 15.3197 12.64C15.3197 9.86001 17.5797 7.58997 20.3697 7.58997C21.2297 7.58997 22.0897 7.80999 22.8397 8.23999C22.8597 8.24999 22.8897 8.23997 22.9097 8.21997C22.9197 8.18997 22.9097 8.16002 22.8897 8.15002C22.1197 7.72002 21.2497 7.48999 20.3697 7.48999C17.5297 7.48999 15.2197 9.80001 15.2197 12.64C15.2197 12.74 15.2197 12.8401 15.2297 12.9301V12.99H15.2397Z" stroke="var(--stroke-color)" stroke-width="2" stroke-linecap="round" stroke-linejoin="round"/>
<path d="M12.2297 45.1399C12.2297 45.1399 12.2497 45.1899 12.2797 45.1899C12.3097 45.1899 12.3297 45.1699 12.3297 45.1399C12.3297 43.2199 13.2097 41.45 14.7397 40.29C14.7597 40.27 14.7697 40.2399 14.7397 40.2199C14.7097 40.1999 14.6897 40.1899 14.6697 40.2099C13.1097 41.3899 12.2197 43.1799 12.2197 45.1399H12.2297Z" stroke="var(--stroke-color)" stroke-width="2" stroke-linecap="round" stroke-linejoin="round"/>
<path d="M19.7895 19.0101C19.7895 19.0101 19.8095 18.9601 19.7895 18.9401C18.5995 17.7501 17.0095 17.0901 15.3295 17.0901C11.8495 17.0901 9.01953 19.9202 9.01953 23.4102C9.01953 23.4402 9.03953 23.4601 9.06953 23.4601C9.09953 23.4601 9.11952 23.4402 9.11952 23.4102C9.11952 19.9802 11.9095 17.1901 15.3295 17.1901C16.9895 17.1901 18.5495 17.8401 19.7195 19.0101C19.7395 19.0301 19.7695 19.0301 19.7895 19.0101Z" stroke="var(--stroke-color)" stroke-width="2" stroke-linecap="round" stroke-linejoin="round"/>
<path d="M14.5704 32.8901C14.5704 32.8901 14.5504 32.8401 14.5204 32.8401C11.1204 32.8401 8.36035 35.6101 8.36035 39.0101C8.36035 39.0401 8.38035 39.0601 8.41035 39.0601C8.44035 39.0601 8.46036 39.0401 8.46036 39.0101C8.46036 35.6601 11.1804 32.9401 14.5204 32.9401C14.5504 32.9401 14.5704 32.9201 14.5704 32.8901Z" stroke="var(--stroke-color)" stroke-width="2" stroke-linecap="round" stroke-linejoin="round"/>
<path d="M19.0703 27.4701C19.1503 27.5301 19.2503 27.5801 19.3403 27.6301C18.1703 29.3001 18.5503 31.6102 20.2203 32.8002C20.2203 32.8002 20.2403 32.8002 20.2503 32.8002C20.2603 32.8002 20.2803 32.8002 20.2903 32.7802C20.3103 32.7602 20.3003 32.7301 20.2803 32.7101C18.6603 31.5501 18.2803 29.2902 19.4303 27.6702C20.1803 28.1202 21.0203 28.3601 21.8803 28.3601C22.1503 28.3601 22.4203 28.3402 22.6803 28.2902C23.9603 28.0802 25.0703 27.3801 25.8203 26.3301C25.8403 26.3101 25.8303 26.2801 25.8103 26.2601C25.7903 26.2501 25.7603 26.2501 25.7403 26.2701C25.0003 27.3001 23.9103 27.9801 22.6603 28.1901C21.4103 28.4001 20.1603 28.1101 19.1303 27.3701C17.8503 26.4501 17.1103 24.9701 17.1503 23.3901C17.1503 23.3601 17.1303 23.3401 17.1003 23.3401C17.0803 23.3401 17.0503 23.3601 17.0503 23.3901C17.0103 25.0001 17.7703 26.5201 19.0703 27.4501V27.4701Z" stroke="#34C0F3" stroke-width="2" stroke-linecap="round" stroke-linejoin="round"/>
<path d="M19.81 12.6101C19.81 12.6101 19.78 12.5701 19.75 12.5701C19.72 12.5701 19.71 12.6001 19.71 12.6301C20.02 13.8201 20.78 14.8201 21.85 15.4401C22.56 15.8601 23.36 16.0701 24.16 16.0701C24.55 16.0701 24.95 16.0202 25.34 15.9202C25.37 15.9202 25.3799 15.8801 25.3699 15.8601C25.3599 15.8401 25.34 15.8201 25.31 15.8201C24.15 16.1301 22.93 15.9601 21.89 15.3601C20.85 14.7601 20.11 13.7801 19.8 12.6101H19.81Z" stroke="#34C0F3" stroke-width="2" stroke-linecap="round" stroke-linejoin="round"/>
<path d="M22.8797 45.6101C21.8697 45.0401 21.1397 44.1201 20.8197 43.0001C20.4297 41.6101 20.7497 40.1201 21.6697 39.0101C21.6897 38.9901 21.6797 38.96 21.6697 38.94C21.6497 38.92 21.6197 38.93 21.5997 38.94C20.6497 40.07 20.3197 41.6001 20.7297 43.0201C21.0497 44.1601 21.7997 45.11 22.8397 45.69C23.5097 46.07 24.2497 46.2601 24.9997 46.2601C25.4097 46.2601 25.8197 46.2 26.2197 46.09C26.2497 46.09 26.2597 46.0501 26.2497 46.0301C26.2497 46.0001 26.2197 45.9901 26.1897 46.0001C25.0697 46.3201 23.8997 46.1801 22.8897 45.6101H22.8797Z" stroke="#34C0F3" stroke-width="2" stroke-linecap="round" stroke-linejoin="round"/>
<path d="M19.7504 46.35C19.7504 46.35 19.7004 46.35 19.6804 46.35C18.7904 46.33 17.9704 45.9699 17.3604 45.3299C17.3404 45.3099 17.3104 45.3099 17.2904 45.3299C17.2704 45.3499 17.2704 45.38 17.2904 45.4C17.9204 46.06 18.7704 46.4299 19.6804 46.4499C19.7004 46.4499 19.7304 46.4499 19.7504 46.4499C20.6304 46.4499 21.4704 46.11 22.1104 45.5C22.1304 45.48 22.1304 45.45 22.1104 45.43C22.0904 45.41 22.0604 45.41 22.0404 45.43C21.4204 46.03 20.6104 46.36 19.7504 46.36V46.35Z" stroke="#34C0F3" stroke-width="2" stroke-linecap="round" stroke-linejoin="round"/>
<path d="M25.2502 36.4001C25.2502 36.4001 25.2002 36.4201 25.2002 36.4501C25.2002 36.4801 25.2202 36.5001 25.2502 36.5001C27.8402 36.5001 29.9502 38.6101 29.9502 41.2101C29.9502 41.2401 29.9702 41.2601 30.0002 41.2601C30.0302 41.2601 30.0502 41.2401 30.0502 41.2101C30.0502 38.5601 27.9002 36.4001 25.2502 36.4001Z" stroke="var(--stroke-color)" stroke-width="2" stroke-linecap="round" stroke-linejoin="round"/>
<path d="M23.8799 20.6499C23.8799 20.6499 23.8999 20.6998 23.9299 20.6998C27.2499 20.6998 29.9499 23.3999 29.9499 26.7299C29.9499 26.7599 29.9699 26.7799 29.9999 26.7799C30.0299 26.7799 30.0499 26.7599 30.0499 26.7299C30.0499 23.3499 27.3099 20.5999 23.9299 20.5999C23.8999 20.5999 23.8799 20.6199 23.8799 20.6499Z" stroke="var(--stroke-color)" stroke-width="2" stroke-linecap="round" stroke-linejoin="round"/>
<path d="M11.48 23.8801C11.48 23.8801 11.52 23.84 11.51 23.82C11.51 23.79 11.47 23.7801 11.45 23.7901C8.79 24.7801 7 27.3601 7 30.2101C7 30.2401 7.02 30.2601 7.05 30.2601C7.08 30.2601 7.10001 30.2401 7.10001 30.2101C7.10001 27.4101 8.86 24.8701 11.48 23.8901V23.8801Z" stroke="var(--stroke-color)" stroke-width="2" stroke-linecap="round" stroke-linejoin="round"/>
<path d="M34.5798 6.01001C35.8898 6.01001 37.0598 6.55994 37.8898 7.43994L38.2598 7.71997C38.6998 7.59997 39.1598 7.53003 39.6298 7.53003C42.4398 7.53003 44.7298 9.82 44.7298 12.63C46.1698 12.98 47.4898 14.63 47.4898 16.29C47.4898 16.78 47.4198 17.26 47.2898 17.71C49.4398 18.7 50.9398 20.87 50.9398 23.4C50.9398 24 50.8498 24.58 50.6898 25.14C52.0798 26.39 52.9598 28.19 52.9598 30.2C52.9598 32.32 51.9898 34.22 50.4698 35.46C51.1798 36.46 51.5998 37.68 51.5998 39C51.5998 41.6 49.9898 43.81 47.7098 44.7C47.7098 44.84 47.7298 44.98 47.7298 45.12C47.7298 48.34 45.2498 50.97 42.0998 51.22C40.8898 52.9 38.9198 54 36.6898 54C32.9998 54 30.0098 51.0099 30.0098 47.3099V10.58C30.0098 8.04996 32.0598 6 34.5898 6L34.5798 6.01001Z" stroke="var(--stroke-color)" stroke-width="2" stroke-linecap="round" stroke-linejoin="round"/>
<path d="M45.3198 40.21C45.3198 40.21 45.2698 40.2 45.2498 40.22C45.2298 40.24 45.2398 40.2701 45.2498 40.2901C46.7798 41.4501 47.6598 43.2201 47.6598 45.1401C47.6598 45.1701 47.6798 45.19 47.7098 45.19C47.7398 45.19 47.7598 45.1701 47.7598 45.1401C47.7598 43.1901 46.8698 41.39 45.3098 40.21H45.3198Z" stroke="var(--stroke-color)" stroke-width="2" stroke-linecap="round" stroke-linejoin="round"/>
<path d="M50.8803 23.4102C50.8803 23.4102 50.9003 23.4601 50.9303 23.4601C50.9603 23.4601 50.9803 23.4402 50.9803 23.4102C50.9803 19.9302 48.1503 17.0901 44.6703 17.0901C42.9803 17.0901 41.4003 17.7501 40.2103 18.9401C40.1903 18.9601 40.1903 18.9901 40.2103 19.0101C40.2303 19.0301 40.2603 19.0301 40.2803 19.0101C41.4503 17.8401 43.0103 17.1901 44.6703 17.1901C48.0903 17.1901 50.8803 19.9802 50.8803 23.4102Z" stroke="var(--stroke-color)" stroke-width="2" stroke-linecap="round" stroke-linejoin="round"/>
<path d="M45.4797 32.8401C45.4797 32.8401 45.4297 32.8601 45.4297 32.8901C45.4297 32.9201 45.4497 32.9401 45.4797 32.9401C48.8197 32.9401 51.5397 35.6601 51.5397 39.0101C51.5397 39.0401 51.5597 39.0601 51.5897 39.0601C51.6197 39.0601 51.6397 39.0401 51.6397 39.0101C51.6397 35.6101 48.8697 32.8401 45.4797 32.8401Z" stroke="var(--stroke-color)" stroke-width="2" stroke-linecap="round" stroke-linejoin="round"/>
<path d="M40.7902 25.1C39.8602 25.79 39.2502 26.77 38.9902 27.88C38.0402 27.74 37.2002 27.23 36.6202 26.46C36.0402 25.68 35.8102 24.73 35.9502 23.77C35.9502 23.74 35.9402 23.72 35.9102 23.71C35.8802 23.71 35.8602 23.73 35.8502 23.75C35.7002 24.74 35.9502 25.72 36.5402 26.52C37.1302 27.31 37.9902 27.83 38.9602 27.98C38.9402 28.08 38.9002 28.18 38.8902 28.28C38.6502 29.87 39.2202 31.4699 40.4102 32.5599C40.4102 32.5599 40.4302 32.5699 40.4402 32.5699C40.4502 32.5699 40.4702 32.57 40.4802 32.55C40.5002 32.53 40.5002 32.5 40.4802 32.48C39.3202 31.41 38.7602 29.85 38.9902 28.29C39.1802 27.04 39.8402 25.9301 40.8502 25.1801C41.8702 24.4201 43.1102 24.11 44.3702 24.3C44.4002 24.3 44.4202 24.29 44.4302 24.26C44.4302 24.23 44.4102 24.21 44.3902 24.2C43.1202 24.01 41.8402 24.33 40.8002 25.1H40.7902Z" stroke="#34C0F3" stroke-width="2" stroke-linecap="round" stroke-linejoin="round"/>
<path d="M40.5398 13.4399C40.5398 13.4399 40.5898 13.44 40.6098 13.42C40.6198 13.4 40.6098 13.3699 40.5898 13.3499C38.3898 12.0899 35.5698 12.8599 34.2998 15.0699C34.2898 15.0899 34.2998 15.1199 34.3198 15.1399H34.3398C34.3598 15.1399 34.3698 15.1399 34.3798 15.1199C35.6098 12.9599 38.3698 12.2099 40.5298 13.4399H40.5398Z" stroke="#34C0F3" stroke-width="2" stroke-linecap="round" stroke-linejoin="round"/>
<path d="M35.0197 40.2C35.0197 40.2 34.9697 40.22 34.9697 40.25C34.9697 40.28 34.9897 40.3 35.0197 40.3C36.2097 40.3 37.3197 40.9 37.9897 41.89C39.0897 43.54 38.6597 45.78 37.0097 46.88C36.9897 46.89 36.9797 46.93 36.9997 46.95C36.9997 46.96 37.0297 46.97 37.0397 46.97C37.0397 46.97 37.0597 46.97 37.0697 46.97C38.7597 45.83 39.2097 43.53 38.0797 41.84C37.3997 40.82 36.2597 40.21 35.0297 40.2H35.0197Z" stroke="#34C0F3" stroke-width="2" stroke-linecap="round" stroke-linejoin="round"/>
<path d="M41.3605 40.8899C41.3605 40.8899 41.3105 40.9198 41.3205 40.9498C41.4805 42.4598 40.3805 43.8098 38.8805 43.9598C38.8505 43.9598 38.8305 43.9899 38.8405 44.0199C38.8405 44.0499 38.8605 44.0598 38.8905 44.0598C40.4505 43.8998 41.5905 42.4998 41.4205 40.9398C41.4205 40.9098 41.3905 40.8999 41.3705 40.8999L41.3605 40.8899Z" stroke="#34C0F3" stroke-width="2" stroke-linecap="round" stroke-linejoin="round"/>
<path d="M29.9502 38.83C29.9502 38.83 29.9702 38.88 30.0002 38.88C30.0302 38.88 30.0502 38.86 30.0502 38.83C30.0502 36.76 31.7302 35.0699 33.8002 35.0699C33.8302 35.0699 33.8502 35.05 33.8502 35.02C33.8502 34.99 33.8302 34.97 33.8002 34.97C31.6702 34.97 29.9502 36.7 29.9502 38.83Z" stroke="var(--stroke-color)" stroke-width="2" stroke-linecap="round" stroke-linejoin="round"/>
<path d="M29.9502 22.9799C29.9502 22.9799 29.9702 23.0299 30.0002 23.0299C30.0302 23.0299 30.0502 23.0099 30.0502 22.9799C30.0502 20.9099 31.7302 19.2198 33.8002 19.2198C33.8302 19.2198 33.8502 19.1999 33.8502 19.1699C33.8502 19.1399 33.8302 19.1199 33.8002 19.1199C31.6702 19.1199 29.9502 20.8499 29.9502 22.9799Z" stroke="var(--stroke-color)" stroke-width="2" stroke-linecap="round" stroke-linejoin="round"/>
<path d="M48.5502 23.79C48.5502 23.79 48.5002 23.7899 48.4902 23.8199C48.4902 23.8499 48.4902 23.87 48.5202 23.88C51.1402 24.86 52.9002 27.4 52.9002 30.21C52.9002 30.24 52.9202 30.26 52.9502 30.26C52.9802 30.26 53.0002 30.24 53.0002 30.21C53.0002 27.37 51.2102 24.79 48.5502 23.79Z" stroke="var(--stroke-color)" stroke-width="2" stroke-linecap="round" stroke-linejoin="round"/>
<path d="M44.7099 13.04C44.7099 13.04 44.6599 13.02 44.6599 12.99V12.9301C44.6699 12.8401 44.6799 12.74 44.6799 12.64C44.6799 9.85001 42.4199 7.58997 39.6299 7.58997C38.7699 7.58997 37.9099 7.80999 37.1599 8.23999C37.1399 8.24999 37.1099 8.23997 37.0899 8.21997C37.0799 8.18997 37.0899 8.16002 37.1099 8.15002C37.8799 7.72002 38.7499 7.48999 39.6299 7.48999C42.4699 7.48999 44.7699 9.80001 44.7699 12.64C44.7699 12.74 44.7699 12.8401 44.7599 12.9301V12.99C44.7599 12.99 44.7299 13.04 44.7099 13.04Z" stroke="var(--stroke-color)" stroke-width="2" stroke-linecap="round" stroke-linejoin="round"/>
</svg>
