<svg width="60" height="60" viewBox="0 0 60 60" fill="none" xmlns="http://www.w3.org/2000/svg">
<style>
    :root {
      color-scheme: light dark;
      --stroke-color: light-dark(black, white);
    }
</style>
<path d="M48.0002 30.08C48.0002 30.08 47.9502 30.06 47.9502 30.03V6.04999C47.9502 6.04999 47.9702 6 48.0002 6C48.0302 6 48.0502 6.01999 48.0502 6.04999V30.03C48.0502 30.03 48.0302 30.08 48.0002 30.08Z" stroke="#34C0F3" stroke-width="2" stroke-linecap="round" stroke-linejoin="round"/>
<path d="M28 18.04L32 12.05L28 6.05005H48V18.04H28Z" stroke="#34C0F3" stroke-width="2" stroke-linecap="round" stroke-linejoin="round"/>
<path d="M54 30.03H42V54.01H54V30.03Z" stroke="var(--stroke-color)" stroke-width="2" stroke-linecap="round" stroke-linejoin="round"/>
<path d="M42 36.02H30V54H42V36.02Z" stroke="var(--stroke-color)" stroke-width="2" stroke-linecap="round" stroke-linejoin="round"/>
<path d="M30 42.02H18V54.01H30V42.02Z" stroke="var(--stroke-color)" stroke-width="2" stroke-linecap="round" stroke-linejoin="round"/>
<path d="M18 48.01H6V54H18V48.01Z" stroke="var(--stroke-color)" stroke-width="2" stroke-linecap="round" stroke-linejoin="round"/>
</svg>
