<svg width="60" height="60" viewBox="0 0 60 60" fill="none" xmlns="http://www.w3.org/2000/svg">
<style>
    :root {
      color-scheme: light dark;
      --stroke-color: light-dark(black, white);
    }
</style>
<path d="M10 55V54C10 50.7 12.7 48 16 48H44C47.3 48 50 50.7 50 54V55H10Z" stroke="var(--stroke-color)" stroke-width="2" stroke-linecap="round" stroke-linejoin="round"/>
<path d="M44 42H16V48H44V42Z" stroke="var(--stroke-color)" stroke-width="2" stroke-linecap="round" stroke-linejoin="round"/>
<path d="M42 42C40.67 42 38 25.96 38 18H22C22 25.96 19.33 42 18 42H42Z" stroke="var(--stroke-color)" stroke-width="2" stroke-linecap="round" stroke-linejoin="round"/>
<path d="M38 18H22C18.7 18 16 15.3 16 12V6H21V11H25V6H35V11H39V6H44V12C44 15.3 41.3 18 38 18Z" stroke="var(--stroke-color)" stroke-width="2" stroke-linecap="round" stroke-linejoin="round"/>
</svg>
