<svg width="60" height="60" viewBox="0 0 60 60" fill="none" xmlns="http://www.w3.org/2000/svg">
<style>
    :root {
      color-scheme: light dark;
      --stroke-color: light-dark(black, white);
    }
</style>
<path d="M22.273 48.69C22.273 48.69 22.243 48.69 22.233 48.67L12.253 38.6C12.253 38.6 12.233 38.5501 12.253 38.5301C13.993 36.7801 17.603 33.84 22.263 33.84C24.773 33.84 26.383 34.38 28.023 35.19H40.233C41.883 35.19 43.243 36.52 43.303 38.17L48.753 32.68C49.953 31.47 51.903 31.47 53.103 32.68C53.683 33.26 54.003 34.04 54.003 34.87C54.003 35.7 53.683 36.48 53.103 37.06L44.553 45.69C43.403 46.85 41.873 47.49 40.243 47.49H25.123C24.063 47.49 23.063 47.91 22.303 48.67C22.303 48.68 22.283 48.69 22.273 48.69ZM12.363 38.57L22.273 48.57C23.043 47.81 24.053 47.4001 25.123 47.4001H40.243C41.843 47.4001 43.353 46.77 44.483 45.63L53.033 37C53.593 36.44 53.903 35.68 53.903 34.88C53.903 34.08 53.593 33.32 53.033 32.76C51.873 31.59 49.983 31.59 48.833 32.76L43.323 38.32C43.313 40.02 41.933 41.4001 40.253 41.4001H32.363C32.363 41.4001 32.313 41.38 32.313 41.35C32.313 41.32 32.333 41.3 32.363 41.3H40.253C41.893 41.3 43.223 39.95 43.223 38.3C43.223 36.64 41.893 35.3 40.253 35.3H28.033C28.033 35.3 28.023 35.3 28.013 35.3C26.383 34.49 24.783 33.95 22.283 33.95C17.683 33.95 14.113 36.83 12.373 38.58L12.363 38.57Z" stroke="var(--stroke-color)" stroke-width="2" stroke-linecap="round" stroke-linejoin="round"/>
<path d="M22.2725 51.5101L19.4225 54.3901C18.6325 55.1801 17.3625 55.1801 16.5725 54.3901L6.5925 44.32C5.8025 43.53 5.8025 42.24 6.5925 41.44L9.4425 38.56C10.2325 37.77 11.5025 37.77 12.2925 38.56L22.2725 48.6301C23.0625 49.4201 23.0625 50.7101 22.2725 51.5101Z" stroke="var(--stroke-color)" stroke-width="2" stroke-linecap="round" stroke-linejoin="round"/>
<path d="M33.1228 29.2C39.7447 29.2 45.1128 23.7826 45.1128 17.1C45.1128 10.4173 39.7447 5 33.1228 5C26.5009 5 21.1328 10.4173 21.1328 17.1C21.1328 23.7826 26.5009 29.2 33.1228 29.2Z" stroke="var(--stroke-color)" stroke-width="2" stroke-linecap="round" stroke-linejoin="round"/>
<path d="M36.6425 19.74C36.6425 18.4 35.4725 17.23 33.8625 16.95L32.4725 16.63C31.0525 16.39 30.0225 15.3599 30.0225 14.1899C30.0225 12.8199 31.4125 11.7 33.1225 11.7C34.8325 11.7 36.2225 12.8199 36.2225 14.1899C36.2225 14.2199 36.2425 14.24 36.2725 14.24C36.3025 14.24 36.3225 14.2199 36.3225 14.1899C36.3225 12.7699 34.9125 11.62 33.1725 11.6V9.82996C33.1725 9.82996 33.1525 9.78003 33.1225 9.78003C33.0925 9.78003 33.0725 9.79996 33.0725 9.82996V11.6C31.3325 11.62 29.9225 12.7699 29.9225 14.1899C29.9225 15.4099 30.9925 16.48 32.4525 16.73L33.8425 17.0499C35.4025 17.3199 36.5425 18.45 36.5425 19.74C36.5425 21.26 35.0125 22.49 33.1225 22.49C31.2325 22.49 29.7025 21.26 29.7025 19.74C29.7025 19.71 29.6825 19.6899 29.6525 19.6899C29.6225 19.6899 29.6025 19.71 29.6025 19.74C29.6025 21.3 31.1525 22.56 33.0725 22.58V24.35C33.0725 24.35 33.0925 24.4 33.1225 24.4C33.1525 24.4 33.1725 24.38 33.1725 24.35V22.58C35.0925 22.56 36.6425 21.29 36.6425 19.74Z" stroke="#34C0F3" stroke-width="2" stroke-linecap="round" stroke-linejoin="round"/>
</svg>
