<svg width="60" height="60" viewBox="0 0 60 60" fill="none" xmlns="http://www.w3.org/2000/svg">
<style>
    :root {
      color-scheme: light dark;
      --stroke-color: light-dark(black, white);
    }
</style>
<path d="M34 55H26C24.34 55 23 53.66 23 52V47H37V52C37 53.66 35.66 55 34 55Z" stroke="var(--stroke-color)" stroke-width="2" stroke-linejoin="round"/>
<path d="M32 55C32 56.1 31.1 57 30 57C28.9 57 28 56.1 28 55" stroke="var(--stroke-color)" stroke-width="2" stroke-linejoin="round"/>
<path d="M40.5 9.82013L42.5 6.3501" stroke="#34C0F3" stroke-width="2" stroke-linecap="round" stroke-linejoin="round"/>
<path d="M8.34961 40.5L11.8096 38.5" stroke="#34C0F3" stroke-width="2" stroke-linecap="round" stroke-linejoin="round"/>
<path d="M48.1904 17.5L51.6505 15.5" stroke="#34C0F3" stroke-width="2" stroke-linecap="round" stroke-linejoin="round"/>
<path d="M5 28H9" stroke="#34C0F3" stroke-width="2" stroke-linecap="round" stroke-linejoin="round"/>
<path d="M51 28H55" stroke="#34C0F3" stroke-width="2" stroke-linecap="round" stroke-linejoin="round"/>
<path d="M8.34961 15.5L11.8096 17.5" stroke="#34C0F3" stroke-width="2" stroke-linecap="round" stroke-linejoin="round"/>
<path d="M48.1904 38.5L51.6505 40.5" stroke="#34C0F3" stroke-width="2" stroke-linecap="round" stroke-linejoin="round"/>
<path d="M17.5 6.3501L19.5 9.82013" stroke="#34C0F3" stroke-width="2" stroke-linecap="round" stroke-linejoin="round"/>
<path d="M30 3V7" stroke="#34C0F3" stroke-width="2" stroke-linecap="round" stroke-linejoin="round"/>
<path d="M29 51H37" stroke="var(--stroke-color)" stroke-width="2" stroke-linecap="round" stroke-linejoin="round"/>
<path d="M23 47V45.87C23 44.5 22.31 43.21 21.15 42.5C16.27 39.52 13 34.15 13 28C13 18.61 20.61 11 30 11V18.43C30 19.14 29.29 19.62 28.63 19.36C28.08 19.13 27.51 19 27 19C25.34 19 24 20.34 24 22C24 23.66 25.34 25 27 25C27.51 25 28.08 24.87 28.63 24.64C29.28 24.37 30 24.8599 30 25.5699V30.4299C30 31.1399 30.71 31.62 31.36 31.36C31.91 31.13 32.48 31 33 31C34.66 31 36 32.34 36 34C36 35.66 34.66 37 33 37C32.49 37 31.92 36.87 31.36 36.64C30.71 36.37 30 36.8599 30 37.5699V47H23Z" stroke="var(--stroke-color)" stroke-width="2" stroke-linejoin="round"/>
<path d="M30 47H37V45.87C37 44.5 37.69 43.21 38.85 42.5C43.73 39.52 47 34.15 47 28C47 18.61 39.39 11 30 11" stroke="var(--stroke-color)" stroke-width="2" stroke-linejoin="round"/>
</svg>
