<svg width="60" height="60" viewBox="0 0 60 60" fill="none" xmlns="http://www.w3.org/2000/svg">
<style>
    :root {
      color-scheme: light dark;
      --stroke-color: light-dark(black, white);
    }
</style>
<path d="M9 39C6.79 39 5 37.21 5 35V21.23C5 19.72 5.97003 18.37 7.41003 17.89L10 17L15 22L20 17H36.89C37.89 17 38.81 17.68 38.97 18.66C39.17 19.91 38.21 21 37 21H24C22.34 21 21 22.34 21 24V54C21 54.55 20.55 55 20 55H10C9.45 55 9 54.55 9 54V25" stroke="var(--stroke-color)" stroke-width="2" stroke-linecap="round" stroke-linejoin="round"/>
<path d="M15 37V55" stroke="var(--stroke-color)" stroke-width="2" stroke-linecap="round" stroke-linejoin="round"/>
<path d="M15 15C17.7614 15 20 12.7614 20 10C20 7.23858 17.7614 5 15 5C12.2386 5 10 7.23858 10 10C10 12.7614 12.2386 15 15 15Z" stroke="var(--stroke-color)" stroke-width="2" stroke-linecap="round" stroke-linejoin="round"/>
<path d="M40 55C48.2843 55 55 48.2843 55 40C55 31.7157 48.2843 25 40 25C31.7157 25 25 31.7157 25 40C25 48.2843 31.7157 55 40 55Z" stroke="var(--stroke-color)" stroke-width="2" stroke-linecap="round" stroke-linejoin="round"/>
<path d="M43 36H39C37.9 36 37 36.9 37 38C37 39.1 37.9 40 39 40H41C42.1 40 43 40.9 43 42C43 43.1 42.1 44 41 44H37" stroke="#34C0F3" stroke-width="2" stroke-linecap="round" stroke-linejoin="round"/>
<path d="M40 33V36" stroke="#34C0F3" stroke-width="2" stroke-linecap="round" stroke-linejoin="round"/>
<path d="M40 44V47" stroke="#34C0F3" stroke-width="2" stroke-linecap="round" stroke-linejoin="round"/>
</svg>
