<svg width="60" height="60" viewBox="0 0 60 60" fill="none" xmlns="http://www.w3.org/2000/svg">
<style>
    :root {
      color-scheme: light dark;
      --stroke-color: light-dark(black, white);
    }
</style>
<path d="M44.4502 40.5L51.3802 44.5" stroke="#34C0F3" stroke-width="2" stroke-linecap="round" stroke-linejoin="round"/>
<path d="M8.61035 17.5L15.5404 21.5" stroke="#34C0F3" stroke-width="2" stroke-linecap="round" stroke-linejoin="round"/>
<path d="M15.5404 40.5L8.61035 44.5" stroke="#34C0F3" stroke-width="2" stroke-linecap="round" stroke-linejoin="round"/>
<path d="M51.3802 17.5L44.4502 21.5" stroke="#34C0F3" stroke-width="2" stroke-linecap="round" stroke-linejoin="round"/>
<path d="M13 31H5" stroke="#34C0F3" stroke-width="2" stroke-linecap="round" stroke-linejoin="round"/>
<path d="M55 31H47" stroke="#34C0F3" stroke-width="2" stroke-linecap="round" stroke-linejoin="round"/>
<path d="M46.3496 35.92L50.2096 36.95" stroke="#34C0F3" stroke-width="2" stroke-linecap="round" stroke-linejoin="round"/>
<path d="M9.78027 25.05L13.6403 26.08" stroke="#34C0F3" stroke-width="2" stroke-linecap="round" stroke-linejoin="round"/>
<path d="M41.4297 44.4399L44.2597 47.2599" stroke="#34C0F3" stroke-width="2" stroke-linecap="round" stroke-linejoin="round"/>
<path d="M18.5605 44.4399L15.7305 47.2599" stroke="#34C0F3" stroke-width="2" stroke-linecap="round" stroke-linejoin="round"/>
<path d="M13.6403 35.92L9.78027 36.95" stroke="#34C0F3" stroke-width="2" stroke-linecap="round" stroke-linejoin="round"/>
<path d="M50.2096 25.05L46.3496 26.08" stroke="#34C0F3" stroke-width="2" stroke-linecap="round" stroke-linejoin="round"/>
<path d="M30 37V55" stroke="var(--stroke-color)" stroke-width="2" stroke-linecap="round" stroke-linejoin="round"/>
<path d="M48.4445 6.585C47.6645 5.805 46.3945 5.805 45.6145 6.585L30.0245 21.995L14.4345 6.585C13.6545 5.805 12.3845 5.805 11.6045 6.585C10.8245 7.365 10.8245 8.635 11.6045 9.415L24.0145 21.945V54.005C24.0145 54.555 24.4645 55.005 25.0145 55.005H35.0145C35.5645 55.005 36.0145 54.555 36.0145 54.005V21.935L48.4245 9.405C49.2045 8.625 49.2045 7.355 48.4245 6.575L48.4445 6.585Z" stroke="var(--stroke-color)" stroke-width="2" stroke-linecap="round" stroke-linejoin="round"/>
<path d="M30 15C32.7614 15 35 12.7614 35 10C35 7.23858 32.7614 5 30 5C27.2386 5 25 7.23858 25 10C25 12.7614 27.2386 15 30 15Z" stroke="var(--stroke-color)" stroke-width="2" stroke-linejoin="round"/>
</svg>
