<svg width="60" height="60" viewBox="0 0 60 60" fill="none" xmlns="http://www.w3.org/2000/svg">
<style>
    :root {
      color-scheme: light dark;
      --stroke-color: light-dark(black, white);
    }
</style>
<path d="M45.9705 36.0699C45.9705 36.0699 45.9205 36.05 45.9205 36.02C45.9205 27.24 38.7805 20.09 30.0005 20.09C21.2205 20.09 14.0805 27.23 14.0805 36.02C14.0805 36.05 14.0605 36.0699 14.0305 36.0699C14.0005 36.0699 13.9805 36.05 13.9805 36.02C13.9805 27.18 21.1605 19.99 30.0005 19.99C38.8405 19.99 46.0205 27.18 46.0205 36.02C46.0205 36.05 46.0005 36.0699 45.9705 36.0699Z" stroke="var(--stroke-color)" stroke-width="2" stroke-linecap="round" stroke-linejoin="round"/>
<path d="M27.3905 33.1099C27.2505 33.1699 27.1205 33.2599 27.0205 33.3699C25.6205 34.9399 25.6705 37.3499 27.1805 38.8499C28.6805 40.3499 31.0905 40.4099 32.6605 39.0099C32.7705 38.9099 32.8605 38.7799 32.9205 38.6399L37.0805 30.2599C37.4305 29.4299 36.6005 28.5899 35.7705 28.9499L27.4005 33.1099H27.3905Z" stroke="#34C0F3" stroke-width="2" stroke-linecap="round" stroke-linejoin="round"/>
<path d="M30.0002 14.1C30.0002 14.1 29.9502 14.0799 29.9502 14.0499V12.0499C29.9502 12.0499 29.9702 12 30.0002 12C30.0302 12 30.0502 12.0199 30.0502 12.0499V14.0499C30.0502 14.0499 30.0302 14.1 30.0002 14.1Z" stroke="var(--stroke-color)" stroke-width="2" stroke-linecap="round" stroke-linejoin="round"/>
<path d="M19.0302 17.04C19.0302 17.04 19.0002 17.04 18.9902 17.02L17.9902 15.29C17.9902 15.29 17.9902 15.23 18.0102 15.22C18.0302 15.2 18.0602 15.22 18.0802 15.24L19.0802 16.97C19.0802 16.97 19.0802 17.02 19.0602 17.04H19.0402H19.0302Z" stroke="var(--stroke-color)" stroke-width="2" stroke-linecap="round" stroke-linejoin="round"/>
<path d="M10.99 25.09C10.99 25.09 10.97 25.09 10.96 25.09L9.23005 24.09C9.23005 24.09 9.20005 24.05 9.21005 24.02C9.22005 24 9.25005 23.99 9.28005 24L11.01 25C11.01 25 11.04 25.04 11.03 25.07C11.03 25.09 11.01 25.09 10.99 25.09Z" stroke="var(--stroke-color)" stroke-width="2" stroke-linecap="round" stroke-linejoin="round"/>
<path d="M8.05 36.0699H6.05C6.05 36.0699 6 36.05 6 36.02C6 35.99 6.02 35.97 6.05 35.97H8.05C8.05 35.97 8.1 35.99 8.1 36.02C8.1 36.05 8.08 36.0699 8.05 36.0699Z" stroke="var(--stroke-color)" stroke-width="2" stroke-linecap="round" stroke-linejoin="round"/>
<path d="M53.9504 36.0699H51.9504C51.9504 36.0699 51.9004 36.05 51.9004 36.02C51.9004 35.99 51.9204 35.97 51.9504 35.97H53.9504C53.9504 35.97 54.0004 35.99 54.0004 36.02C54.0004 36.05 53.9804 36.0699 53.9504 36.0699Z" stroke="var(--stroke-color)" stroke-width="2" stroke-linecap="round" stroke-linejoin="round"/>
<path d="M49.0205 25.09C49.0205 25.09 48.9905 25.0899 48.9805 25.0699C48.9705 25.0499 48.9805 25.01 49.0005 25L50.7305 24C50.7305 24 50.7805 24 50.8005 24.02C50.8105 24.05 50.8005 24.08 50.7805 24.09L49.0505 25.09C49.0505 25.09 49.0305 25.09 49.0205 25.09Z" stroke="var(--stroke-color)" stroke-width="2" stroke-linecap="round" stroke-linejoin="round"/>
<path d="M40.9797 17.0399C40.9797 17.0399 40.9597 17.0399 40.9497 17.0399C40.9297 17.0299 40.9197 16.9998 40.9297 16.9698L41.9297 15.2398C41.9297 15.2398 41.9697 15.2098 41.9997 15.2198C42.0197 15.2298 42.0297 15.2599 42.0197 15.2899L41.0197 17.0199C41.0197 17.0199 40.9997 17.0399 40.9797 17.0399Z" stroke="var(--stroke-color)" stroke-width="2" stroke-linecap="round" stroke-linejoin="round"/>
<path d="M10.4498 48C9.6998 48 9.0098 47.58 8.6698 46.91C6.9598 43.55 6.0498 39.79 6.0498 36.01C6.0498 22.8 16.7898 12.04 29.9998 12.04C43.2098 12.04 53.9498 22.79 53.9498 36.01C53.9498 39.78 53.0398 43.55 51.3298 46.91C50.9898 47.58 50.2998 48 49.5498 48H10.4498Z" stroke="var(--stroke-color)" stroke-width="2" stroke-linecap="round" stroke-linejoin="round"/>
</svg>
