<svg width="60" height="60" viewBox="0 0 60 60" fill="none" xmlns="http://www.w3.org/2000/svg">
<style>
    :root {
      color-scheme: light dark;
      --stroke-color: light-dark(black, white);
    }
</style>
<path d="M30.0107 17.0009C32.2199 17.0009 34.0107 15.21 34.0107 13.0009C34.0107 10.7917 32.2199 9.00085 30.0107 9.00085C27.8016 9.00085 26.0107 10.7917 26.0107 13.0009C26.0107 15.21 27.8016 17.0009 30.0107 17.0009Z" stroke="#34C0F3" stroke-width="2" stroke-linejoin="round"/>
<path d="M30.0107 41.0009V55.0009" stroke="var(--stroke-color)" stroke-width="2" stroke-linecap="round" stroke-linejoin="round"/>
<path d="M44.0107 41.0009V53.0009" stroke="var(--stroke-color)" stroke-width="2" stroke-linecap="round" stroke-linejoin="round"/>
<path d="M16.0107 41.0009V53.0009" stroke="var(--stroke-color)" stroke-width="2" stroke-linecap="round" stroke-linejoin="round"/>
<path d="M18.5908 11.9709C17.8908 11.3709 17.0007 11.0009 16.0107 11.0009C13.8007 11.0009 12.0107 12.7909 12.0107 15.0009C12.0107 17.2109 13.8007 19.0009 16.0107 19.0009C18.2207 19.0009 20.0107 17.2109 20.0107 15.0009C20.0107 14.7509 19.9807 14.5209 19.9407 14.2809" stroke="var(--stroke-color)" stroke-width="2" stroke-linejoin="round"/>
<path d="M40.0807 14.2809C40.0407 14.5109 40.0107 14.7509 40.0107 15.0009C40.0107 17.2109 41.8007 19.0009 44.0107 19.0009C46.2207 19.0009 48.0107 17.2109 48.0107 15.0009C48.0107 12.7909 46.2207 11.0009 44.0107 11.0009C43.0207 11.0009 42.1308 11.3709 41.4308 11.9709" stroke="var(--stroke-color)" stroke-width="2" stroke-linejoin="round"/>
<path d="M25.0104 23.0008L21.0104 41.0008H25.0104V54.0008C25.0104 54.5508 25.4604 55.0008 26.0104 55.0008H34.0104C34.5604 55.0008 35.0104 54.5508 35.0104 54.0008V41.0008H39.0104L35.0104 23.0008L43.7804 7.93082C44.3404 6.85082 43.8504 5.51082 42.6404 5.10082C41.7104 4.79082 40.6904 5.25082 40.2204 6.11082L30.0104 23.0008L19.8005 6.11082C19.3305 5.25082 18.3104 4.78082 17.3804 5.10082C16.1704 5.51082 15.6805 6.85082 16.2405 7.93082L25.0104 23.0008Z" stroke="var(--stroke-color)" stroke-width="2" stroke-linecap="round" stroke-linejoin="round"/>
<path d="M21.2407 16.5308L16.0006 25.0008L6.79068 10.1108C6.32068 9.25082 5.3007 8.78082 4.3707 9.10082C3.1607 9.51082 2.67068 10.8508 3.23068 11.9308L11.0006 25.0008L7.00064 41.0008H11.0006V52.0008C11.0006 52.5508 11.4506 53.0008 12.0006 53.0008H20.0006C20.5506 53.0008 21.0006 52.5508 21.0006 52.0008V45.0008" stroke="var(--stroke-color)" stroke-width="2" stroke-linecap="round" stroke-linejoin="round"/>
<path d="M39.0105 45.0008V52.0008C39.0105 52.5508 39.4605 53.0008 40.0105 53.0008H48.0105C48.5605 53.0008 49.0105 52.5508 49.0105 52.0008V41.0008H53.0105L49.0105 25.0008L56.7805 11.9308C57.3405 10.8508 56.8505 9.51082 55.6405 9.10082C54.7105 8.78082 53.6905 9.25082 53.2205 10.1108L44.0105 25.0008L38.7705 16.5308" stroke="var(--stroke-color)" stroke-width="2" stroke-linecap="round" stroke-linejoin="round"/>
<path d="M22.8907 32.5308L21.0107 25.0008L23.6108 20.6108" stroke="var(--stroke-color)" stroke-width="2" stroke-linecap="round" stroke-linejoin="round"/>
<path d="M37.1204 32.5308L39.0104 25.0008L36.4004 20.6108" stroke="var(--stroke-color)" stroke-width="2" stroke-linecap="round" stroke-linejoin="round"/>
</svg>
