<svg width="60" height="60" viewBox="0 0 60 60" fill="none" xmlns="http://www.w3.org/2000/svg">
<style>
    :root {
      color-scheme: light dark;
      --stroke-color: light-dark(black, white);
    }
</style>
<path d="M18 47C20.7614 47 23 44.7614 23 42C23 39.2386 20.7614 37 18 37C15.2386 37 13 39.2386 13 42C13 44.7614 15.2386 47 18 47Z" stroke="#34C0F3" stroke-width="2" stroke-linejoin="round"/>
<path d="M25 49C22.98 48.81 20.95 48.04 19.08 46.88C18.73 46.96 18.37 47 18 47C15.24 47 13 44.76 13 42C13 41.63 13.05 41.27 13.12 40.92C11.96 39.05 11.19 37.01 11 35C10.85 33.35 9.66 32 8 32C6.34 32 5 33.34 5 35C5 46.05 13.95 55 25 55C26.66 55 28 53.66 28 52C28 50.34 26.65 49.15 25 49Z" stroke="var(--stroke-color)" stroke-width="2" stroke-linejoin="round"/>
<path d="M18 23C20.7614 23 23 20.7614 23 18C23 15.2386 20.7614 13 18 13C15.2386 13 13 15.2386 13 18C13 20.7614 15.2386 23 18 23Z" stroke="#34C0F3" stroke-width="2" stroke-linejoin="round"/>
<path d="M11 25C11.19 22.98 11.96 20.95 13.12 19.08C13.04 18.73 13 18.37 13 18C13 15.24 15.24 13 18 13C18.37 13 18.73 13.05 19.08 13.12C20.95 11.96 22.99 11.19 25 11C26.65 10.85 28 9.66 28 8C28 6.34 26.66 5 25 5C13.95 5 5 13.95 5 25C5 26.66 6.34 28 8 28C9.66 28 10.85 26.65 11 25Z" stroke="var(--stroke-color)" stroke-width="2" stroke-linejoin="round"/>
<path d="M42 23C44.7614 23 47 20.7614 47 18C47 15.2386 44.7614 13 42 13C39.2386 13 37 15.2386 37 18C37 20.7614 39.2386 23 42 23Z" stroke="#34C0F3" stroke-width="2" stroke-linejoin="round"/>
<path d="M35 11C37.02 11.19 39.05 11.96 40.92 13.12C41.27 13.04 41.63 13 42 13C44.76 13 47 15.24 47 18C47 18.37 46.95 18.73 46.88 19.08C48.04 20.95 48.81 22.99 49 25C49.15 26.65 50.34 28 52 28C53.66 28 55 26.66 55 25C55 13.95 46.05 5 35 5C33.34 5 32 6.34 32 8C32 9.66 33.35 10.85 35 11Z" stroke="var(--stroke-color)" stroke-width="2" stroke-linejoin="round"/>
<path d="M42 47C44.7614 47 47 44.7614 47 42C47 39.2386 44.7614 37 42 37C39.2386 37 37 39.2386 37 42C37 44.7614 39.2386 47 42 47Z" stroke="#34C0F3" stroke-width="2" stroke-linejoin="round"/>
<path d="M49 35C48.81 37.02 48.04 39.05 46.88 40.92C46.96 41.27 47 41.63 47 42C47 44.76 44.76 47 42 47C41.63 47 41.27 46.95 40.92 46.88C39.05 48.04 37.01 48.81 35 49C33.35 49.15 32 50.34 32 52C32 53.66 33.34 55 35 55C46.05 55 55 46.05 55 35C55 33.34 53.66 32 52 32C50.34 32 49.15 33.35 49 35Z" stroke="var(--stroke-color)" stroke-width="2" stroke-linejoin="round"/>
</svg>
