<svg width="60" height="60" viewBox="0 0 60 60" fill="none" xmlns="http://www.w3.org/2000/svg">
<style>
    :root {
      color-scheme: light dark;
      --stroke-color: light-dark(black, white);
    }
</style>
<path d="M30 43C32.7614 43 35 40.7614 35 38C35 35.2386 32.7614 33 30 33C27.2386 33 25 35.2386 25 38C25 40.7614 27.2386 43 30 43Z" stroke="var(--stroke-color)" stroke-width="2" stroke-linejoin="round"/>
<path d="M44 37C46.7614 37 49 34.7614 49 32C49 29.2386 46.7614 27 44 27C41.2386 27 39 29.2386 39 32C39 34.7614 41.2386 37 44 37Z" stroke="var(--stroke-color)" stroke-width="2" stroke-linejoin="round"/>
<path d="M41 55V49.88C41 48.16 39.9 46.63 38.26 46.09L35 45L30 50L25 45L21.73 46.09C20.1 46.63 19 48.16 19 49.88V55" stroke="var(--stroke-color)" stroke-width="2" stroke-linecap="round" stroke-linejoin="round"/>
<path d="M55 49V43.88C55 42.16 53.9 40.63 52.26 40.09L49 39L44 44L39 39" stroke="var(--stroke-color)" stroke-width="2" stroke-linecap="round" stroke-linejoin="round"/>
<path d="M23 51V55" stroke="var(--stroke-color)" stroke-width="2" stroke-linecap="round" stroke-linejoin="round"/>
<path d="M37 51V55" stroke="var(--stroke-color)" stroke-width="2" stroke-linecap="round" stroke-linejoin="round"/>
<path d="M51 45V49" stroke="var(--stroke-color)" stroke-width="2" stroke-linecap="round" stroke-linejoin="round"/>
<path d="M9 45V49" stroke="var(--stroke-color)" stroke-width="2" stroke-linecap="round" stroke-linejoin="round"/>
<path d="M16 37C18.7614 37 21 34.7614 21 32C21 29.2386 18.7614 27 16 27C13.2386 27 11 29.2386 11 32C11 34.7614 13.2386 37 16 37Z" stroke="var(--stroke-color)" stroke-width="2" stroke-linejoin="round"/>
<path d="M5 49V43.88C5 42.16 6.09998 40.63 7.72998 40.09L11 39L16 44L21 39" stroke="var(--stroke-color)" stroke-width="2" stroke-linecap="round" stroke-linejoin="round"/>
<path d="M7 27L20 14L26 20L34 12L38 16L43 11L39 7L53 5L51 19L47 15L38 24L34 20L26 28L20 22L19 23" stroke="#34C0F3" stroke-width="2" stroke-linecap="round" stroke-linejoin="round"/>
</svg>
