<svg width="60" height="60" viewBox="0 0 60 60" fill="none" xmlns="http://www.w3.org/2000/svg">
<style>
    :root {
      color-scheme: light dark;
      --stroke-color: light-dark(black, white);
    }
</style>
<path d="M27.0013 51H6.00129C5.34129 51 4.85133 50.36 5.04133 49.73L8.2613 38.45C8.5013 37.59 9.29128 37 10.1813 37H22.8113C23.7013 37 24.4913 37.59 24.7313 38.45L27.9513 49.73C28.1313 50.37 27.6513 51 26.9913 51H27.0013Z" stroke="var(--stroke-color)" stroke-width="2" stroke-linecap="round" stroke-linejoin="round"/>
<path d="M10.8311 44L11.2711 42.45C11.5111 41.59 12.301 41 13.191 41H16.491" stroke="var(--stroke-color)" stroke-width="2" stroke-linecap="round" stroke-linejoin="round"/>
<path d="M54.0013 51H33.0013C32.3413 51 31.8513 50.36 32.0413 49.73L35.2613 38.45C35.5013 37.59 36.2913 37 37.1813 37H49.8113C50.7013 37 51.4913 37.59 51.7313 38.45L54.9513 49.73C55.1313 50.37 54.6513 51 53.9913 51H54.0013Z" stroke="var(--stroke-color)" stroke-width="2" stroke-linecap="round" stroke-linejoin="round"/>
<path d="M37.8311 44L38.2711 42.45C38.5111 41.59 39.301 41 40.191 41H43.491" stroke="var(--stroke-color)" stroke-width="2" stroke-linecap="round" stroke-linejoin="round"/>
<path d="M40.5013 33H19.5013C18.8413 33 18.3513 32.36 18.5413 31.73L21.7613 20.45C22.0013 19.59 22.7913 19 23.6813 19H36.3113C37.2013 19 37.9913 19.59 38.2313 20.45L41.4513 31.73C41.6313 32.37 41.1513 33 40.4913 33H40.5013Z" stroke="var(--stroke-color)" stroke-width="2" stroke-linecap="round" stroke-linejoin="round"/>
<path d="M24.3311 26L24.7711 24.45C25.0111 23.59 25.801 23 26.691 23H29.991" stroke="var(--stroke-color)" stroke-width="2" stroke-linecap="round" stroke-linejoin="round"/>
<path d="M13.001 9C13.001 11.77 9.77098 15 7.00098 15C9.77098 15 13.001 18.23 13.001 21C13.001 18.23 16.231 15 19.001 15C16.231 15 13.001 11.77 13.001 9Z" stroke="#34C0F3" stroke-width="2" stroke-linejoin="round"/>
<path d="M50.001 21C50.001 23.31 47.311 26 45.001 26C47.311 26 50.001 28.69 50.001 31C50.001 28.69 52.691 26 55.001 26C52.691 26 50.001 23.31 50.001 21Z" stroke="#34C0F3" stroke-width="2" stroke-linejoin="round"/>
<path d="M9.00098 31C10.1055 31 11.001 30.1046 11.001 29C11.001 27.8954 10.1055 27 9.00098 27C7.89641 27 7.00098 27.8954 7.00098 29C7.00098 30.1046 7.89641 31 9.00098 31Z" stroke="var(--stroke-color)" stroke-width="2" stroke-linecap="round" stroke-linejoin="round"/>
<path d="M34.001 13L35.001 14" stroke="var(--stroke-color)" stroke-width="2" stroke-linecap="round" stroke-linejoin="round"/>
<path d="M30.001 9L31.001 10" stroke="var(--stroke-color)" stroke-width="2" stroke-linecap="round" stroke-linejoin="round"/>
<path d="M34.001 10L35.001 9" stroke="var(--stroke-color)" stroke-width="2" stroke-linecap="round" stroke-linejoin="round"/>
<path d="M30.001 14L31.001 13" stroke="var(--stroke-color)" stroke-width="2" stroke-linecap="round" stroke-linejoin="round"/>
</svg>
