<?xml version="1.0" encoding="UTF-8"?>
<svg
      width="119"
      height="28"
      viewBox="0 0 119 28"
      fill="none"
      xmlns="http://www.w3.org/2000/svg"
      aria-label="BetaNXT Logo"
     role="img"
    >

      <g id="_&#60;BetaNXTLogo&#62;">
        <path
          id="Vector"
          d="M14.6395 20.1241C14.6395 24.0759 12.502 27.7865 8.55023 27.7865H0V0H7.78357C11.2519 0 13.5104 2.54013 13.5104 6.85593C13.5104 9.43696 12.5019 12.018 10.4857 12.9861C13.1879 13.9541 14.6395 17.3008 14.6395 20.1241ZM7.66294 2.50032H2.66186V11.9373H7.98546C9.80039 11.9373 10.8487 9.79984 10.8487 7.05727C10.8487 4.23398 9.67932 2.50032 7.66294 2.50032ZM8.14699 25.2861C10.5665 25.2861 11.9782 22.7858 11.9782 19.9226C11.9782 16.9378 10.5261 14.276 8.02582 14.276H2.66186V25.2861H8.14699Z"
          fill="#0D6580"
        />
        <path
          id="Vector_2"
          d="M31.7425 19.4379H19.9668C20.2893 23.31 22.1042 25.8103 24.6853 25.8103C26.5405 25.8103 28.1939 24.4795 29.0812 22.5036L31.0571 23.4716C29.807 26.4155 27.3875 28.2698 24.5237 28.2698C20.4104 28.2698 17.3857 24.2781 17.3857 18.2686C17.3857 12.3808 20.3296 8.46875 24.7256 8.46875C28.96 8.46875 31.7829 12.0986 31.7829 18.3095C31.7829 18.5507 31.7425 18.9943 31.7425 19.4379ZM29.2422 17.3005C29.1615 13.1473 27.1856 10.9292 24.766 10.9292C22.0638 10.9292 20.2892 13.4693 19.9668 17.3005H29.2422Z"
          fill="#0D6580"
        />
        <path
          id="Vector_3"
          d="M41.7872 8.95266V11.1708H38.6014V27.7867H36.0608V11.1708H33.5195V8.95266H36.0608V1.89551H38.6014V8.95277L41.7872 8.95266Z"
          fill="#0D6580"
        />
        <path
          id="Vector_4"
          d="M55.783 8.95214H58.3237V27.7863H55.783V24.5193C54.8553 26.8183 52.8391 28.2698 50.3786 28.2698C46.1441 28.2698 43.3213 24.2781 43.3213 18.3493C43.3213 12.4205 46.1441 8.46875 50.3786 8.46875C52.839 8.46875 54.8553 9.92025 55.783 12.1793V8.95214ZM55.7426 18.3891C55.7426 13.9538 53.7264 10.9292 50.7819 10.9292C47.8374 10.9292 45.9024 13.8731 45.9024 18.3493C45.9024 22.8255 47.838 25.8103 50.7819 25.8103C53.7258 25.8103 55.7426 22.7856 55.7426 18.3891Z"
          fill="#0D6580"
        />
        <path
          id="Vector_5"
          d="M73.0059 0H79.0149V27.7865H73.8129L68.7714 13.2682V27.7865H62.8027V0H68.3681L73.0059 13.5503V0Z"
          fill="#0D6580"
        />
        <path
          id="Vector_6"
          d="M102.248 27.7865H95.1897L91.6008 18.3097L87.9305 27.7865H80.9131L88.092 12.986L81.3567 0H88.6164L91.5603 7.7023L94.585 0H101.763L95.0287 13.0259L102.248 27.7865Z"
          fill="#0D6580"
        />
        <path
          id="Vector_7"
          d="M118.464 0V5.24289H113.463V27.7865H107.494V5.24289H102.453V0H118.464Z"
          fill="#0D6580"
        />
      </g>
    </svg>
