<svg width="96" height="96" viewBox="0 0 96 96" fill="none" xmlns="http://www.w3.org/2000/svg">
<rect width="96" height="96" fill="#032F3F"/>
<path d="M32.2905 36.5713C32.2905 40.8354 29.9781 44.8391 25.7027 44.8391H16.4524V14.8571H24.8733C28.6256 14.8571 31.069 17.598 31.069 22.2548C31.069 25.0398 29.978 27.8247 27.7966 28.8693C30.7201 29.9138 32.2905 33.5249 32.2905 36.5713ZM24.7428 17.555H19.3322V27.7376H25.0917C27.0552 27.7376 28.1893 25.4313 28.1893 22.472C28.1893 19.4257 26.9242 17.555 24.7428 17.555ZM25.2665 42.1412C27.8841 42.1412 29.4113 39.4434 29.4113 36.3539C29.4113 33.1333 27.8404 30.2611 25.1354 30.2611H19.3322V42.1412H25.2665Z" fill="white"/>
<path d="M50.7934 35.8312H38.0535C38.4024 40.0092 40.3659 42.7071 43.1583 42.7071C45.1655 42.7071 46.9542 41.2711 47.9142 39.139L50.0519 40.1835C48.6993 43.36 46.0817 45.3609 42.9835 45.3609C38.5334 45.3609 35.2611 41.0538 35.2611 34.5695C35.2611 28.2164 38.4461 23.9953 43.2019 23.9953C47.7831 23.9953 50.837 27.912 50.837 34.6136C50.837 34.8739 50.7934 35.3525 50.7934 35.8312ZM48.0883 33.5249C48.001 29.0435 45.8633 26.6501 43.2456 26.6501C40.3221 26.6501 38.4023 29.3909 38.0535 33.5249H48.0883Z" fill="white"/>
<path d="M61.6606 24.5169V26.9103H58.2141V44.839H55.4654V26.9103H52.7161V24.5169H55.4654V16.9021H58.2141V24.517L61.6606 24.5169Z" fill="white"/>
<path d="M76.8026 24.5169H79.5512V44.8391H76.8026V41.314C75.799 43.7947 73.6176 45.3609 70.9556 45.3609C66.3745 45.3609 63.3206 41.0538 63.3206 34.6565C63.3206 28.2592 66.3745 23.9953 70.9556 23.9953C73.6175 23.9953 75.799 25.5615 76.8026 27.9991V24.5169ZM76.7589 34.6995C76.7589 29.9137 74.5775 26.6501 71.392 26.6501C68.2065 26.6501 66.113 29.8266 66.113 34.6565C66.113 39.4865 68.2071 42.7071 71.392 42.7071C74.5769 42.7071 76.7589 39.4434 76.7589 34.6995Z" fill="white"/>
<path d="M27.491 50.8848H33.992V80.8668H28.3641L22.9098 65.2013V80.8668H16.4524V50.8848H22.4735L27.491 65.5058V50.8848Z" fill="white"/>
<path d="M59.1276 80.8668H51.4919L47.6091 70.6412L43.6384 80.8668H36.0464L43.813 64.8969L36.5263 50.8848H44.3804L47.5653 59.1957L50.8377 50.8848H58.6039L51.3177 64.94L59.1276 80.8668Z" fill="white"/>
<path d="M76.6711 50.8848V56.542H71.2605V80.8668H64.8032V56.542H59.3495V50.8848H76.6711Z" fill="white"/>
</svg>
